# xmcd
#
# Track frame offsets:
#	150
#	14471
#	47402
#	84735
#
# Disc length: 1483 seconds
#
# Revision: 0
# Processed by: cddbd v1.5.2PL0 Copyright (c) Steve Scherf et al.
# Submitted via: audiograbber 1.83.01
#
DISCID=2605c904
DTITLE=Roy Gates - Midnight Sun [CDs)
DYEAR=2006
DGENRE=Trance
TTITLE0=Midnight Sun (Radio Edit)
TTITLE1=Midnight Sun (Divini and Warning Mix)
TTITLE2=Midnight Sun (2 Nefuse Mix)
TTITLE3=Midnight Sun (Electro Mix)
EXTD=
EXTT0=
EXTT1=
EXTT2=
EXTT3=
PLAYORDER=
